<svg xmlns="http://www.w3.org/2000/svg" width="202.846" height="183.77" viewBox="0 0 202.846 183.77">
  <g id="Group_21" data-name="Group 21" transform="translate(789.938 551.928) rotate(40)">
    <path id="Path_18" data-name="Path 18" d="M-614.128,192.729c-.54,1.085,1.8,2.6,2.384,1.6a1.432,1.432,0,0,0,.3-.873,1.173,1.173,0,0,1,.451-.809c.3-.234.647-.519.379-.8-.174-.115-.349.192-.575.209s-.345-.145-.247-.315l2.166-3.265a1.186,1.186,0,0,1,.426-.426c.349-.268.136-.426.532-.638.111-.285-.157-.3-.221-.23-.055-.051.03-.077-.038-.128s-.183.166-.03.119c.072.034-.115.187-.14.115.038-.026,0-.064,0-.089s-.183.17-.03.123c.085.051-.2.2-.1.064-.03-.111-.208,0-.115.085.145-.034,0,.085-.051.123-.034-.026,0-.043,0-.072s-.081-.077-.149.038c.034.085.072,0,.106.064-.217.17-.089.106-.17,0-.021-.021-.166.068-.072.136h.068c-.051.047-.2.166-.128.034-.03-.111-.209,0-.115.085.23,0-.251.136-.034.353a.414.414,0,0,0-.03.051l-2.06,2.911c-.243.1-.166-.277-.37-.37-.5-.328-.719.192-.851.621a1.167,1.167,0,0,1-.524.643A1.98,1.98,0,0,0-614.128,192.729Z" transform="translate(-151.452 -102.515)" fill="#fff" opacity="0.48" style="mix-blend-mode: normal;isolation: isolate"/>
    <path id="Path_19" data-name="Path 19" d="M-637.46,82.462s21.047-4.758,27.138-4.329,9.764,4.112,9.551,6.925-1.1,11.254-36.689,15.582" transform="translate(-138.097 -39.939)" fill="#fff" stroke="#004c7f" stroke-width="0.544"/>
    <path id="Path_20" data-name="Path 20" d="M-627.649,218.161l-12.041-1.49,5.044-9.981,11.394,4.32Z" transform="translate(-136.816 -113.795)" fill="#fff"/>
    <path id="Path_21" data-name="Path 21" d="M-826.815,211.522c6.836-4.09,13.658-8.385,17.221-11.756,7.78-7.359,19.153-23.605,19.153-23.605l-43.988-59.277-.251.038a3.511,3.511,0,0,1-3.975-2.826,31.832,31.832,0,0,1,2.937-20.643c.089-.162.174-.332.26-.5,4.512-8.938,3.277-20.928,1.839-27.061a14.465,14.465,0,0,0-1.277-3.831c-1.775-2.443-7.661-3.226-9.317-.515a11.626,11.626,0,0,0-.936,4.682c-.23,3.494-.209,7.8-1.613,10.258-.885,1.549-2.7,4.107-4.81,7.806a82,82,0,0,0-7.078,16.272c-4.12,13.194-7.874,9.619-9.611,18.213-.822,3.98-4.137,25.171-9.628,43.707" transform="translate(0 -29.45)" fill="#fff" stroke="#004c7f" stroke-width="0.625"/>
    <path id="Path_22" data-name="Path 22" d="M-767.876,8.57h50.2c4.367,0,7.9,4.15,7.9,9.27v119.6c0,5.108-3.537,9.27-7.9,9.27h-50.2c-4.367,0-7.9-4.15-7.9-9.27V17.84C-775.78,12.72-772.243,8.57-767.876,8.57Z" transform="translate(-58.649)" fill="#fff" stroke="#004c7f" stroke-width="0.625"/>
    <path id="Path_23" data-name="Path 23" d="M-702.027,26.83h-12.535c-.685,0-1.239.14-1.239.319v.094c0,.179.553.323,1.239.323h12.556c.681,0,1.234-.145,1.234-.323v-.094C-700.792,26.97-701.346,26.83-702.027,26.83Z" transform="translate(-93.1 -10.488)" fill="#004c7f"/>
    <rect id="Rectangle_4" data-name="Rectangle 4" width="59.124" height="112.518" transform="translate(-830.99 20.726)" fill="#fff" stroke="#004c7f" stroke-width="0.625"/>
    <path id="Path_24" data-name="Path 24" d="M-620.178,270.76s4.618,2.366,5.359,5.835-2.264,10.453-6.968,11.194-5.7-.064-7.6-2.554-2.724-8.87,3.567-12.713" transform="translate(-141.942 -150.595)" fill="#fff" stroke="#004c7f" stroke-width="0.625"/>
    <path id="Path_25" data-name="Path 25" d="M-624.935,215.853s-8.253,11.19-9.159,13.931,0,8.185,2.477,10.411,8.168,3.92,11.466-1.464,6.521-13.7,6.767-15.523-2.554-8.755-7.1-9.828" transform="translate(-139.833 -117.638)" fill="#fff" stroke="#004c7f" stroke-width="0.625"/>
    <path id="Path_26" data-name="Path 26" d="M-625.265,166.929a26.059,26.059,0,0,0-3.12,7.972,12.582,12.582,0,0,0,2.452,10.364,8.888,8.888,0,0,0,6.44,3.4c4.316.549,7.725-14.718,8.193-16.77.558-2.409-2.89-6.993-5.154-8.985s-8.81-3.916-8.81-3.916" transform="translate(-143.159 -86.403)" fill="#fff" stroke="#004c7f" stroke-width="0.625"/>
    <path id="Path_27" data-name="Path 27" d="M-611.38,195.971s4.614,6.627,5.205,6.687,2.6-5.205,1.894-7.04-3.609-7.236-7.1.353" transform="translate(-153.077 -105.379)" fill="#fff" stroke="#004c7f" stroke-width="0.625"/>
    <path id="Path_28" data-name="Path 28" d="M-617.759,255.72s-7-7.989-7.831-7.989c0,0,3.473-6.844,8.61-4.614S-615.115,252.557-617.759,255.72Z" transform="translate(-144.915 -134.461)" fill="#fff" stroke="#004c7f" stroke-width="0.625"/>
    <path id="Path_29" data-name="Path 29" d="M-618.438,293.216s-.821-5.623-4.112-8.172c0,0,2.026-2.311,6.648-.451S-616.625,292.82-618.438,293.216Z" transform="translate(-146.661 -158.125)" fill="#fff" stroke="#004c7f" stroke-width="0.625"/>
    <line id="Line_1" data-name="Line 1" y2="11.683" transform="translate(-768.423 68.958)" fill="none" stroke="#004c7f" stroke-width="0.625"/>
    <circle id="Ellipse_11" data-name="Ellipse 11" cx="4.873" cy="4.873" r="4.873" transform="translate(-806.3 135.091)" fill="#fff" stroke="#004c7f" stroke-width="0.625"/>
    <g id="Group_20" data-name="Group 20" transform="translate(-854.326 -0.162) rotate(-41)" opacity="0.54">
      <path id="Path_30" data-name="Path 30" d="M-731.512,70.44h-46.2a9.977,9.977,0,0,0-10.041,9.912v34.565h0a10,10,0,0,0,2.762,6.912,40.877,40.877,0,0,1-2.762,5.176c1.843,0,4.32-1.328,6.418-2.724a10.031,10.031,0,0,0,3.622.677h46.2a10.041,10.041,0,0,0,10.04-10.04h0V80.357A10.044,10.044,0,0,0-731.512,70.44Z" transform="translate(787.75 -70.44)" fill="#c6c6c6"/>
    </g>
    <path id="Path_31" data-name="Path 31" d="M-735.092,66.86h-46.2a9.977,9.977,0,0,0-10.04,9.912v34.565h0a10,10,0,0,0,2.762,6.912,40.871,40.871,0,0,1-2.762,5.176c1.843,0,4.32-1.328,6.418-2.724a10.031,10.031,0,0,0,3.622.677h46.2a10.041,10.041,0,0,0,10.04-10.041h0V76.777A10.044,10.044,0,0,0-735.092,66.86Z" transform="translate(-303.115 -569.931) rotate(-41)" fill="#22f"/>
    <path id="Path_32" data-name="Path 32" d="M-729.01,90.893a6.563,6.563,0,0,0-8.375-4,6.563,6.563,0,0,0-4,8.375,6.563,6.563,0,0,0,8.376,4,6.564,6.564,0,0,0,4-4h4.758v4.375h4.375V95.268h2.188V90.893Zm-6.18,4.375a2.188,2.188,0,0,1-2.188-2.188,2.188,2.188,0,0,1,2.188-2.188A2.188,2.188,0,0,1-733,93.081h0a2.192,2.192,0,0,1-2.188,2.188Z" transform="translate(-324.22 -551.42) rotate(-41)" fill="#fff"/>
  </g>
</svg>
