<svg xmlns="http://www.w3.org/2000/svg" width="39" height="39" viewBox="0 0 39 39">
  <g id="Group_85" data-name="Group 85" transform="translate(-320 -53)">
    <g id="Group_45" data-name="Group 45" transform="translate(51 -118)">
      <circle id="Ellipse_15" data-name="Ellipse 15" cx="19.5" cy="19.5" r="19.5" transform="translate(269 171)" fill="#7373ff"/>
    </g>
    <g id="Layer_2" data-name="Layer 2" transform="translate(328 59)">
      <g id="edit">
        <rect id="Rectangle_22" data-name="Rectangle 22" width="24" height="24" fill="#fff" opacity="0"/>
        <path id="Path_114" data-name="Path 114" d="M19.4,7.34,16.66,4.6A2,2,0,0,0,14,4.53l-9,9a2,2,0,0,0-.57,1.21L4,18.91A1,1,0,0,0,5,20h.09l4.17-.38a2,2,0,0,0,1.21-.57l9-9a1.92,1.92,0,0,0-.07-2.71ZM9.08,17.62l-3,.28.27-3L12,9.32l2.7,2.7ZM16,10.68,13.32,8l1.95-2L18,8.73Z" fill="#fff"/>
      </g>
    </g>
  </g>
</svg>
