<svg xmlns="http://www.w3.org/2000/svg" width="14" height="14" viewBox="0 0 14 14">
  <g id="Layer_2" data-name="Layer 2" transform="translate(-0.216 -0.216)">
    <g id="invisible_box" data-name="invisible box" transform="translate(0.216 0.216)">
      <rect id="Rectangle_29" data-name="Rectangle 29" width="14" height="14" fill="none"/>
    </g>
    <g id="Q3_icons" data-name="Q3 icons" transform="translate(0.518 0.777)">
      <g id="Group_126" data-name="Group 126">
        <path id="Path_126" data-name="Path 126" d="M13.326,6.986h0l-.578-3A1.22,1.22,0,0,0,11.56,3H10.251a1.186,1.186,0,0,0-1.035.583L8.7,4.471l-.518-.889A1.186,1.186,0,0,0,7.145,3H5.836a1.22,1.22,0,0,0-1.187.981l-.609,3C2.792,7.354,2,7.906,2,8.519s.578.981,1.522,1.349v4.538a.582.582,0,0,0,.457.583l3.654.889a.728.728,0,0,0,.639-.245l.426-.521.426.521a.638.638,0,0,0,.487.245h.152l3.654-.889a.582.582,0,0,0,.457-.583V9.868C14.818,9.5,15.4,9.04,15.4,8.519S14.6,7.354,13.326,6.986Zm-.67,6.929-2.8.675-.67-.859a.667.667,0,0,0-.974,0l-.67.859-2.8-.675V10.236a16.634,16.634,0,0,0,3.958.429,16.634,16.634,0,0,0,3.958-.429ZM8.7,9.439a11.906,11.906,0,0,1-5.206-.92,5,5,0,0,1,.913-.368l.7-.215L5.258,7.2l.578-2.974H7.146l.518.859a1.183,1.183,0,0,0,2.07,0l.518-.859H11.56L12.139,7.2l.152.736.7.215a5,5,0,0,1,.913.368A11.906,11.906,0,0,1,8.7,9.439Z" transform="translate(-2 -3)"/>
        <path id="Path_127" data-name="Path 127" d="M14.036,32c-.518,0-1.036-.026-1.036.259a1.122,1.122,0,0,0,1.036.777c.518,0,1.036-.233,1.036-.518S14.554,32,14.036,32Z" transform="translate(-9.54 -22.961)"/>
        <path id="Path_128" data-name="Path 128" d="M28.036,33.034a1.122,1.122,0,0,0,1.036-.777c0-.285-.518-.259-1.036-.259S27,32.231,27,32.516,27.518,33.034,28.036,33.034Z" transform="translate(-19.136 -22.961)"/>
      </g>
    </g>
  </g>
</svg>
