<svg xmlns="http://www.w3.org/2000/svg" width="96" height="96" viewBox="0 0 96 96">
  <g id="Group_84" data-name="Group 84" transform="translate(-28.022 -54.209)">
    <g id="Group_25" data-name="Group 25" transform="translate(30.246 56.433)">
      <g id="Ellipse_12" data-name="Ellipse 12" transform="translate(-0.225 -0.225)" fill="#4242ff" stroke="#fff" stroke-width="2">
        <circle cx="46" cy="46" r="46" stroke="none"/>
        <circle cx="46" cy="46" r="47" fill="none"/>
      </g>
      <g id="user" transform="translate(28.758 25.239)">
        <path id="Path_2" data-name="Path 2" d="M16.2,4.076A6.123,6.123,0,1,0,22.322,10.2,6.123,6.123,0,0,0,16.2,4.076ZM7.25,10.2A8.949,8.949,0,1,1,16.2,19.148,8.949,8.949,0,0,1,7.25,10.2Z" transform="translate(0.286 -1.25)" fill="#fff" fill-rule="evenodd"/>
        <path id="Path_3" data-name="Path 3" d="M3.25,23.706A10.456,10.456,0,0,1,13.706,13.25H25.763A10.456,10.456,0,0,1,36.219,23.706a7.442,7.442,0,0,1-7.442,7.442H10.692A7.442,7.442,0,0,1,3.25,23.706Zm10.456-7.63a7.63,7.63,0,0,0-7.63,7.63,4.616,4.616,0,0,0,4.616,4.616H28.778a4.616,4.616,0,0,0,4.616-4.616,7.63,7.63,0,0,0-7.63-7.63Z" transform="translate(-3.25 7.473)" fill="#fff" fill-rule="evenodd"/>
      </g>
    </g>
  </g>
</svg>
