<svg xmlns="http://www.w3.org/2000/svg" width="39" height="39" viewBox="0 0 39 39">
  <g id="Group_45" data-name="Group 45" transform="translate(-269 -171)">
    <g id="Ellipse_15" data-name="Ellipse 15" transform="translate(269 171)" fill="#fff" stroke="#eee" stroke-width="1">
      <circle cx="19.5" cy="19.5" r="19.5" stroke="none"/>
      <circle cx="19.5" cy="19.5" r="19" fill="none"/>
    </g>
    <path id="call" d="M7.056,2.418l1.167-.351a2.75,2.75,0,0,1,3.3,1.505l.9,2.006a2.75,2.75,0,0,1-.633,3.139L10.3,10.11a.25.25,0,0,0-.078.155,4.726,4.726,0,0,0,.845,2.245,6.831,6.831,0,0,0,1.207,1.637c.242.215.375.261.432.245l2.01-.615A2.75,2.75,0,0,1,17.75,14.8l1.281,1.776a2.75,2.75,0,0,1-.339,3.6l-.886.84a3.75,3.75,0,0,1-3.587.889C11.465,21.138,9,18.814,6.784,14.983S3.792,7.843,4.508,5.07A3.75,3.75,0,0,1,7.056,2.418Zm.433,1.437A2.25,2.25,0,0,0,5.96,5.445c-.6,2.332.087,5.261,2.123,8.788s4.222,5.582,6.54,6.23a2.25,2.25,0,0,0,2.151-.534l.887-.84a1.25,1.25,0,0,0,.154-1.639l-1.28-1.775a1.25,1.25,0,0,0-1.38-.464l-2.015.617c-1.17.348-2.232-.593-3.372-2.568A5.639,5.639,0,0,1,8.731,10.1a1.754,1.754,0,0,1,.546-1.086L10.771,7.62a1.25,1.25,0,0,0,.288-1.427l-.9-2.006a1.25,1.25,0,0,0-1.5-.684l-1.168.352Z" transform="matrix(0.966, -0.259, 0.259, 0.966, 274.391, 182.177)" fill="#212121"/>
  </g>
</svg>
