<svg xmlns="http://www.w3.org/2000/svg" width="17.5" height="20.5" viewBox="0 0 17.5 20.5">
  <g id="user" transform="translate(-3.25 -2.25)">
    <path id="Path_2" data-name="Path 2" d="M12,2.75A3.25,3.25,0,1,0,15.25,6,3.25,3.25,0,0,0,12,2.75ZM7.25,6A4.75,4.75,0,1,1,12,10.75,4.75,4.75,0,0,1,7.25,6Z" transform="translate(0 1)" fill-rule="evenodd"/>
    <path id="Path_3" data-name="Path 3" d="M3.25,18.8A5.55,5.55,0,0,1,8.8,13.25h6.4a5.55,5.55,0,0,1,5.55,5.55,3.95,3.95,0,0,1-3.95,3.95H7.2A3.95,3.95,0,0,1,3.25,18.8ZM8.8,14.75A4.05,4.05,0,0,0,4.75,18.8,2.45,2.45,0,0,0,7.2,21.25h9.6a2.45,2.45,0,0,0,2.45-2.45,4.05,4.05,0,0,0-4.05-4.05Z" fill-rule="evenodd"/>
  </g>
</svg>
