<svg xmlns="http://www.w3.org/2000/svg" width="21.5" height="21.5" viewBox="0 0 21.5 21.5">
  <g id="tick-square" transform="translate(-295.05 -384.82)">
    <path id="Path_50" data-name="Path 50" d="M308.8,384.82h-6c-5.43,0-7.75,2.32-7.75,7.75v6c0,5.43,2.32,7.75,7.75,7.75h6c5.43,0,7.75-2.32,7.75-7.75v-6C316.55,387.14,314.23,384.82,308.8,384.82Zm1.78,8.44-5.67,5.67a.748.748,0,0,1-1.06,0l-2.83-2.83a.75.75,0,0,1,1.02-1.1c.01.01.03.02.04.04l2.3,2.3,5.14-5.14a.746.746,0,0,1,1.06.03A.756.756,0,0,1,310.58,393.26Z" fill="#3c9e74"/>
  </g>
</svg>
