<svg xmlns="http://www.w3.org/2000/svg" width="12.296" height="13.304" viewBox="0 0 12.296 13.304">
  <g id="delete" transform="translate(0.6 0.6)">
    <path id="Path_51" data-name="Path 51" d="M14.419,9.468s-.355,4.407-.561,6.263a1.464,1.464,0,0,1-1.543,1.422c-1.707.031-3.416.033-5.123,0a1.449,1.449,0,0,1-1.5-1.415c-.207-1.873-.561-6.268-.561-6.268" transform="translate(-4.229 -5.073)" fill="none" stroke="#141414" stroke-linecap="round" stroke-linejoin="round" stroke-width="1.2"/>
    <path id="Path_52" data-name="Path 52" d="M14.846,6.24H3.75" transform="translate(-3.75 -3.957)" fill="none" stroke="#141414" stroke-linecap="round" stroke-linejoin="round" stroke-width="1.2"/>
    <path id="Path_53" data-name="Path 53" d="M13.838,5.034a1.078,1.078,0,0,1-1.057-.866l-.159-.8a.837.837,0,0,0-.809-.621H9.043a.837.837,0,0,0-.809.621l-.159.8a1.078,1.078,0,0,1-1.057.866" transform="translate(-4.88 -2.751)" fill="none" stroke="#141414" stroke-linecap="round" stroke-linejoin="round" stroke-width="1.2"/>
  </g>
</svg>
